<svg xmlns="http://www.w3.org/2000/svg" viewBox="0 0 120 120" fill="none">
  <defs>
    <linearGradient id="bgGradW" x1="0" y1="0" x2="120" y2="120" gradientUnits="userSpaceOnUse">
      <stop offset="0%" stop-color="#F97316"/>
      <stop offset="100%" stop-color="#FB923C"/>
    </linearGradient>
  </defs>

  <rect x="10" y="10" width="100" height="100" rx="22" fill="url(#bgGradW)"/>

  <path d="
    M 40 38
    C 40 33 44 29 49 29
    L 71 29
    C 76 29 80 33 80 38
    C 80 43 76 47 71 47
    L 49 47
    
    M 49 47
    L 49 73
    C 49 78 53 82 58 82
    L 71 82
    C 76 82 80 78 80 73
  " stroke="#FFFFFF" stroke-width="5.5" stroke-linecap="round" stroke-linejoin="round" fill="none"/>

  <path d="M 36 60 L 50 60" stroke="#FFFFFF" stroke-width="3.5" stroke-linecap="round" stroke-opacity="0.5"/>
  <path d="M 62 60 L 84 60" stroke="#FFFFFF" stroke-width="3.5" stroke-linecap="round" stroke-opacity="0.5"/>
  <path d="M 78 55 L 86 60 L 78 65" stroke="#FFFFFF" stroke-width="3" stroke-linecap="round" stroke-linejoin="round" stroke-opacity="0.3"/>

  <circle cx="86" cy="34" r="4" fill="#FFFFFF" fill-opacity="0.9"/>
  <circle cx="86" cy="34" r="1.8" fill="#F97316" fill-opacity="0.9"/>
  <circle cx="34" cy="86" r="3.5" fill="#FFFFFF" fill-opacity="0.8"/>
</svg>
